<?xml version="1.0" encoding="UTF-8" ?>
<!DOCTYPE svg PUBLIC "-//W3C//DTD SVG 1.1//EN" "http://www.w3.org/Graphics/SVG/1.1/DTD/svg11.dtd">
<svg width="470pt" height="136pt" viewBox="0 0 470 136" version="1.1" xmlns="http://www.w3.org/2000/svg">
<path fill="#ffffff" d=" M 0.00 0.00 L 470.00 0.00 L 470.00 136.00 L 0.00 136.00 L 0.00 0.00 Z" />
<path fill="#000000" d=" M 34.63 11.61 C 48.49 7.58 63.74 11.53 75.28 19.74 C 84.46 27.54 83.08 41.12 77.81 50.72 C 74.93 49.44 67.36 51.09 67.39 45.94 C 68.06 40.65 71.49 35.78 70.69 30.30 C 65.45 19.56 52.36 19.79 42.20 19.92 C 47.88 36.56 64.82 45.47 74.72 59.27 C 83.28 70.06 90.86 86.34 82.05 99.07 C 76.97 105.71 67.76 106.82 60.02 107.08 C 42.80 108.33 24.20 99.09 17.13 82.92 C 15.16 76.88 12.47 68.09 18.35 63.36 C 22.68 61.05 27.99 63.05 32.69 63.09 C 30.09 65.05 27.42 66.91 24.73 68.74 C 25.01 86.55 44.32 98.96 61.00 96.14 C 65.77 95.90 71.62 94.72 74.04 90.04 C 76.35 84.72 74.57 78.67 72.25 73.73 C 64.86 61.79 54.26 52.40 44.26 42.74 C 38.15 35.79 30.37 28.06 31.12 17.99 C 31.20 15.54 32.02 12.47 34.63 11.61 Z" />
<path fill="#000000" d=" M 236.61 64.85 C 264.93 52.89 295.44 47.43 325.68 42.73 C 325.97 45.20 326.17 47.67 326.28 50.16 C 311.34 53.15 296.13 54.85 281.45 59.11 C 283.16 70.71 282.59 82.50 283.44 94.17 C 284.02 97.98 279.89 99.43 276.85 100.14 C 273.39 87.38 273.91 74.01 274.65 60.94 C 262.50 64.14 251.03 69.43 238.87 72.54 C 238.09 69.99 237.27 67.41 236.61 64.85 Z" />
<path fill="#000000" d=" M 335.58 46.26 C 338.14 47.27 340.66 48.40 343.10 49.67 C 342.78 59.78 342.07 69.91 342.69 80.02 C 344.43 79.91 347.91 79.70 349.65 79.59 C 349.30 68.74 346.41 57.74 348.64 46.92 C 350.97 48.15 354.14 48.79 355.33 51.42 C 356.44 60.84 356.83 70.32 357.46 79.78 C 364.25 80.57 371.07 80.83 377.89 81.15 C 380.98 77.80 383.00 72.13 388.59 72.51 C 394.59 71.63 402.72 71.99 406.32 77.72 C 407.60 79.34 406.68 81.90 405.13 82.97 C 400.62 85.06 395.85 86.51 391.35 88.64 C 397.81 89.49 404.32 89.81 410.83 90.16 C 412.74 85.46 413.99 79.28 419.33 77.29 C 423.29 75.97 425.79 80.53 428.59 82.45 C 431.41 85.47 435.29 87.06 439.17 88.24 C 440.08 80.02 439.59 71.44 442.56 63.60 C 443.75 60.65 447.49 59.19 450.36 60.57 C 455.14 62.76 460.20 67.08 459.08 73.03 C 460.95 81.01 452.99 85.72 448.39 90.80 C 447.82 103.82 449.84 116.82 448.77 129.82 C 447.03 131.63 444.33 131.47 442.05 131.90 C 441.15 120.69 440.43 109.25 436.34 98.63 C 434.91 94.93 430.51 93.20 426.81 94.18 C 417.80 96.83 408.33 97.54 398.98 97.60 C 391.35 98.92 386.24 92.23 380.27 88.91 C 373.15 87.68 365.89 88.11 358.71 88.14 C 358.52 92.12 358.48 96.13 357.78 100.06 C 356.05 100.05 354.32 100.03 352.60 100.02 C 351.51 96.07 350.55 92.10 349.61 88.12 C 347.58 87.86 345.55 87.60 343.53 87.34 C 343.20 91.41 342.93 95.49 342.62 99.56 C 340.94 99.68 337.58 99.90 335.90 100.02 C 335.50 95.89 335.13 91.75 334.78 87.63 C 329.27 86.73 320.28 88.51 321.72 79.62 C 325.99 79.26 330.28 78.92 334.56 78.56 C 334.27 67.82 333.23 56.85 335.58 46.26 Z" />
<path fill="#000000" d=" M 93.42 53.71 C 95.62 54.10 97.82 54.53 100.02 54.96 C 100.57 61.43 100.00 68.03 101.15 74.41 C 105.45 81.30 110.51 87.72 116.40 93.33 C 118.63 88.37 119.16 81.31 124.63 78.65 C 130.94 75.67 138.31 74.61 145.10 76.44 C 145.34 80.70 144.74 85.11 145.89 89.26 C 149.30 94.02 155.00 96.08 160.70 96.13 C 159.91 89.65 157.67 83.08 158.58 76.60 C 162.21 69.43 171.75 74.06 178.01 73.20 C 187.82 72.37 195.42 79.55 202.45 85.37 C 205.89 81.19 208.60 76.18 213.20 73.16 C 215.60 71.45 218.63 72.67 220.62 74.39 C 224.51 79.15 224.28 85.56 226.27 91.10 C 227.68 94.71 229.32 98.24 230.30 102.00 C 227.06 101.26 222.29 102.09 220.54 98.45 C 217.78 92.73 216.82 86.32 214.44 80.43 C 209.26 86.92 209.72 98.54 200.53 101.16 C 197.61 93.76 193.68 86.15 186.30 82.36 C 188.58 87.61 191.36 92.97 190.90 98.90 C 190.30 102.85 186.20 104.70 182.88 105.97 C 177.87 105.75 173.69 102.81 169.06 101.36 C 163.51 101.44 158.01 102.78 152.43 102.38 C 147.42 101.49 144.07 96.81 139.24 95.54 C 133.22 98.52 127.16 102.29 120.02 101.06 C 111.25 101.43 105.38 93.93 100.08 88.00 C 99.22 92.66 98.45 97.34 97.78 102.04 C 95.76 102.45 93.74 102.85 91.72 103.23 C 90.81 93.13 92.37 83.06 92.54 72.97 C 92.84 66.56 92.25 60.06 93.42 53.71 Z" />
<path fill="#ffffff" d=" M 447.40 81.98 C 447.82 77.32 448.42 72.65 449.67 68.14 C 451.86 72.94 451.88 78.52 447.40 81.98 Z" />
<path fill="#ffffff" d=" M 164.56 82.05 C 166.05 81.62 167.55 81.20 169.05 80.79 C 168.39 83.36 167.74 85.93 167.08 88.50 C 166.19 86.37 165.36 84.22 164.56 82.05 Z" />
<path fill="#ffffff" d=" M 177.18 82.26 C 180.26 86.82 182.24 92.02 183.33 97.41 C 181.39 97.71 179.45 97.99 177.51 98.28 C 175.24 93.13 175.92 87.57 177.18 82.26 Z" />
<path fill="#ffffff" d=" M 134.62 83.75 C 133.53 88.39 130.06 91.82 125.27 92.47 C 127.02 88.31 130.81 85.86 134.62 83.75 Z" />
</svg>
